<svg width="800" height="800" fill="none" xmlns="http://www.w3.org/2000/svg"><path d="M162.341 262.461c.19-8.17-6.294-14.943-14.464-15.125-7.979-.198-14.943 6.286-15.133 14.464-.785 34.958 4.7 72.998 16.314 113.045 1.875 6.476 7.79 10.689 14.208 10.689 1.362 0 2.75-.19 4.13-.596 7.847-2.271 12.366-10.481 10.094-18.338-10.771-37.147-15.868-72.188-15.149-104.139ZM217.62 103.176c-6.757 4.668-13.737 10.565-21.354 18.033-5.832 5.725-5.923 15.1-.198 20.932a14.743 14.743 0 0 0 10.564 4.436c3.743 0 7.493-1.403 10.368-4.237 6.394-6.27 12.093-11.11 17.437-14.795 6.725-4.642 8.418-13.86 3.775-20.593-4.65-6.725-13.868-8.418-20.592-3.776ZM357.782 247.337c-8.178.174-14.653 6.947-14.48 15.116.231 10.4-.141 21.098-1.091 31.795-.718 8.137 5.295 15.332 13.44 16.05.446.041.883.059 1.32.059 7.583 0 14.043-5.791 14.729-13.489 1.049-11.779 1.454-23.576 1.198-35.058-.181-8.179-7.128-14.679-15.116-14.473Z" fill="#FBD42C"/><path d="M708.527 144.824c-17.281-33.769-51.645-55.064-90.201-55.064-51.678 0-94.467 38.825-100.721 88.834-17.279.396-32.678 8.517-42.896 21.022-33.305-88.883-119.099-152.33-219.463-152.33-129.186 0-234.283 105.104-234.283 234.299 0 79.573 33.133 122.511 71.503 172.238 10.259 13.3 20.865 27.054 31.579 42.386 18.983 27.185 75.922 135.198 76.492 136.289l.892 1.692a14.7 14.7 0 0 0-2.593 8.36v46.97c-.017.445-.133.858-.133 1.304v27.633c0 18.892 15.364 34.256 34.248 34.256h42.417c18.884 0 34.248-15.364 34.248-34.256v-27.633c0-.768-.174-1.485-.223-2.246v-46.027c0-2.247-.537-4.354-1.437-6.262l1.999-3.791c.578-1.091 57.509-109.096 76.5-136.281 10.714-15.34 21.328-29.094 31.588-42.394 37.883-49.107 70.602-91.666 71.42-169.339 8.617 5.221 18.678 8.285 29.473 8.285 15.977 0 30.961-6.749 41.576-18.074 16.875 11.747 36.883 18.074 57.814 18.074 16.496 0 32.57-3.973 47.047-11.564a73.858 73.858 0 0 0 39.65 11.564c40.807 0 74.014-33.198 74.014-74.014 0-39.633-31.322-72.097-70.51-73.931Zm-403.71 434.443a5297.537 5297.537 0 0 0-16.876 31.53h-65.39c-3.8-7.162-9.896-18.603-17.033-31.818l99.299.288Zm-25.029 77.756c-1.462-.19-2.908-.447-4.419-.447h-42.417c-1.544 0-3.023.257-4.511.456v-14.481c0-.735-.115-1.445-.222-2.147h51.785c-.108.702-.215 1.412-.215 2.147v14.472h-.001Zm-4.42 66.083h-42.417a4.648 4.648 0 0 1-4.642-4.649v-2.636c.033-.438.131-.868.131-1.313v-24.336c.331-2.237 2.181-3.989 4.511-3.989h42.417c2.164 0 3.899 1.52 4.419 3.52v24.806c0 .776.107 1.512.223 2.254v1.695a4.647 4.647 0 0 1-4.642 4.648ZM394.6 435.742c-10.467 13.571-21.296 27.605-32.415 43.516-9.12 13.052-25.682 42.17-41.252 70.454l-28.887-.084c8.599-26.829 19.23-53.503 29.671-79.391 15.835-39.253 32.208-79.846 41.872-122.47 1.809-7.971-3.188-15.901-11.167-17.702-7.972-1.817-15.902 3.188-17.703 11.16-9.135 40.303-25.062 79.771-40.459 117.942-11.788 29.226-23.906 59.427-33.273 90.369l-16.339-.049c-9.368-31.034-21.271-60.5-32.844-88.999-5.105-12.571-10.202-25.136-15.092-37.84-2.933-7.634-11.516-11.44-19.132-8.501-7.624 2.941-11.432 11.499-8.5 19.132 4.956 12.87 10.119 25.606 15.298 38.345 10.21 25.153 20.602 51.1 29.159 77.772l-24.178-.065c-15.513-28.17-31.968-57.081-41.046-70.074-11.11-15.91-21.94-29.944-32.415-43.516-37.932-49.158-65.332-84.679-65.332-154.157 0-112.871 91.815-204.694 204.678-204.694S459.93 168.713 459.93 281.584c.002 69.472-27.399 104.991-65.33 154.158Zm310.423-172.578c-10.639 0-20.947-3.857-29.025-10.871a14.81 14.81 0 0 0-17.91-1.147 71.544 71.544 0 0 1-39.762 12.019c-19 0-36.924-7.36-50.48-20.734a14.796 14.796 0 0 0-23.888 4.469c-4.451 9.879-14.273 16.265-25.021 16.265-15.156 0-27.49-12.333-27.49-27.491 0-15.157 12.334-27.49 27.49-27.49 2.52 0 5.172.479 8.359 1.512a14.847 14.847 0 0 0 13.549-2.338 14.804 14.804 0 0 0 5.783-12.474l-.109-1.768c-.041-.611-.09-1.231-.09-1.851 0-39.642 32.248-71.898 71.898-71.898 29.82 0 56.102 17.999 66.939 45.854 2.412 6.187 8.672 9.971 15.266 9.359a44.578 44.578 0 0 1 4.492-.231c24.484 0 44.41 19.924 44.41 44.408 0 24.491-19.926 44.407-44.411 44.407Z" fill="#FBD42C"/></svg>