<svg width="800" height="800" fill="none" xmlns="http://www.w3.org/2000/svg"><path d="M764.868 562.761c-.187-8.698-7.288-15.648-15.979-15.648l-694.798-.037a15.985 15.985 0 0 0-13.896 8.084 15.996 15.996 0 0 0 .152 16.076C45.245 579.473 161.748 773 287.333 773h410.972c.66.035 1.785.069 3.266.069 24.365 0 52.905-10.392 59.917-39.565 6.253-25.963 3.693-156.004 3.38-170.743Zm-34.464 163.266c-3.273 13.605-21.251 15.068-28.834 15.068-.929 0-1.554-.027-1.642-.027a12.589 12.589 0 0 0-1.16-.045H287.333c-83.613 0-169.345-111.591-203.787-161.971l649.642.036c.884 54.573.83 131.915-2.784 146.939ZM50.347 524.855c2.333 0 4.693-.517 6.9-1.57 1.295-.625 130.707-62.049 229.241-62.049 109.583 0 220.992 60.435 222.103 61.04a15.972 15.972 0 0 0 15.84-.249 15.987 15.987 0 0 0 7.847-13.757V42.92c0-8.833-7.159-15.988-15.986-15.988-205.951 0-468.741 454.637-479.826 473.986a15.978 15.978 0 0 0 2.164 18.825 15.967 15.967 0 0 0 11.717 5.112ZM500.303 59.96v422.499c-40.325-18.779-126.182-53.199-213.814-53.199-68.527 0-147.844 26.194-196.783 45.394C157.86 365.23 349.25 79.471 500.303 59.96ZM578.55 322.485c0 134.903-23.075 177.478-23.262 177.817a15.992 15.992 0 0 0 1.998 18.896 15.993 15.993 0 0 0 18.641 3.648c.549-.26 55.239-25.998 95.533-25.998 33.715 0 66.903 24.393 67.455 24.801a15.982 15.982 0 0 0 18.665.384 16.008 16.008 0 0 0 6.299-17.582c-24.892-86.63-112.511-369.301-194.808-369.301a15.983 15.983 0 0 0-12.923 6.575 15.982 15.982 0 0 0-2.294 14.318c11.119 34.475 24.696 118.043 24.696 166.442Zm143.477 153.522c-14.517-6.066-32.181-11.133-50.567-11.133-25.396 0-54.204 8.002-75.869 15.621 7.288-29.244 14.934-78.804 14.934-158.01 0-38.978-7.89-96.79-16.813-139.097 37.967 43.511 89.73 167.745 128.315 292.619Z" fill="#FBD42C"/><path d="M270.572 606.506c-29.098 0-52.771 23.677-52.771 52.779 0 29.093 23.673 52.771 52.771 52.771 29.102 0 52.776-23.678 52.776-52.771.001-29.102-23.674-52.779-52.776-52.779Zm0 73.575c-11.469 0-20.796-9.333-20.796-20.796 0-11.473 9.327-20.806 20.796-20.806s20.801 9.333 20.801 20.806c.001 11.463-9.332 20.796-20.801 20.796Z" fill="#FBD42C"/></svg>