<svg width="800" height="800" fill="none" xmlns="http://www.w3.org/2000/svg"><path d="M406.469 251.33h-47.912c-22.686 0-41.143 18.457-41.143 41.142v153.177c0 22.686 18.457 41.143 41.143 41.143h47.912c22.686 0 41.143-18.457 41.143-41.143V292.472c0-22.685-18.457-41.142-41.143-41.142Zm15.106 194.319c0 8.33-6.775 15.104-15.105 15.104h-47.912c-8.33 0-15.105-6.773-15.105-15.104V292.472c0-8.329 6.775-15.104 15.105-15.104h47.912c8.33 0 15.105 6.775 15.105 15.104v153.177ZM235.734 252.512H94.087c-24.53 0-44.487 19.957-44.487 44.488v1.537c0 24.53 19.957 44.488 44.487 44.488h141.647c24.53 0 44.487-19.958 44.487-44.488V297c.001-24.531-19.956-44.488-44.487-44.488Zm18.45 46.024c0 10.175-8.274 18.45-18.449 18.45H94.087c-10.174 0-18.45-8.275-18.45-18.45v-1.537c0-10.175 8.276-18.45 18.45-18.45h141.647c10.175 0 18.449 8.275 18.449 18.45v1.537h.001Z" fill="#FBD42C"/><path d="M710.464 462.675c0-7.188-5.826-13.019-13.02-13.019-7.184 0-13.018 5.83-13.018 13.019v49.719H503.094c9.395-11.725 15.05-26.568 15.05-42.725V261.495c0-37.768-30.725-68.495-68.492-68.495H70.976C33.208 193 2.48 223.728 2.48 261.495v208.174c0 37.766 30.729 68.494 68.495 68.494h40.153a35.285 35.285 0 0 1-.777-7.295c0-6.9 2.067-13.295 5.5-18.742 6.263-9.932 17.254-16.594 29.837-16.594 12.583 0 23.575 6.662 29.837 16.594 3.433 5.447 5.5 11.842 5.5 18.742 0 2.504-.28 4.938-.777 7.295h72.229a35.217 35.217 0 0 1-.777-7.295c0-6.9 2.066-13.295 5.5-18.742 6.262-9.932 17.254-16.594 29.837-16.594 12.583 0 23.575 6.662 29.838 16.594 3.433 5.447 5.5 11.842 5.5 18.742 0 2.504-.28 4.938-.777 7.295h74.393c.855.174 1.734.27 2.639.27h226.282v17.236c0 7.188 5.834 13.018 13.02 13.018 7.191 0 13.019-5.83 13.019-13.018v-17.236h45.261c5.057 0 9.395-2.922 11.551-7.139 1.672-2.189 2.703-4.893 2.703-7.865v-60.754h-.002ZM345.46 512.126c-7.944-24.699-31.12-42.633-58.422-42.633-27.302 0-50.478 17.934-58.422 42.633h-24.505c-7.944-24.699-31.12-42.633-58.422-42.633-27.302 0-50.477 17.934-58.421 42.633H70.975c-23.411 0-42.456-19.047-42.456-42.457V261.495c0-23.412 19.044-42.457 42.456-42.457h378.677c23.408 0 42.453 19.045 42.453 42.457v208.174c0 23.41-19.045 42.457-42.453 42.457H345.46Z" fill="#FBD42C"/><path d="M145.815 555.427c13.01 0 23.557-10.547 23.557-23.557 0-13.011-10.547-23.558-23.557-23.558-13.01 0-23.557 10.547-23.557 23.558 0 13.01 10.547 23.557 23.557 23.557ZM287.162 555.427c13.011 0 23.557-10.547 23.557-23.557 0-13.011-10.546-23.558-23.557-23.558-13.01 0-23.557 10.547-23.557 23.558 0 13.01 10.547 23.557 23.557 23.557ZM368.874 357.531c-7.396 0-13.394 5.997-13.394 13.389 0 7.393 5.998 13.39 13.394 13.39 7.392 0 13.389-5.997 13.389-13.39-.001-7.392-5.998-13.389-13.389-13.389ZM590.817 581.086H13.019C5.83 581.086 0 586.916 0 594.106c0 7.188 5.83 13.02 13.019 13.02h577.798c7.186 0 13.02-5.832 13.02-13.02 0-7.189-5.834-13.02-13.02-13.02ZM672.651 581.086h-37.197c-7.186 0-13.02 5.83-13.02 13.02 0 7.188 5.834 13.02 13.02 13.02h37.197c7.186 0 13.02-5.832 13.02-13.02 0-7.189-5.834-13.02-13.02-13.02Z" fill="#FBD42C"/></svg>