<svg width="706" height="742" fill="none" xmlns="http://www.w3.org/2000/svg"><path d="m196.626 215.862 200.477 35.354-58.058 327.125c-1.5 8.399 4.104 16.419 12.498 17.906.913.159 1.826.241 2.723.241 7.344 0 13.859-5.262 15.188-12.752l58.074-327.158 209.148 36.876a15.437 15.437 0 0 0 11.531-2.56 15.481 15.481 0 0 0 6.361-9.973c22.858-129.684-64.039-253.802-193.72-276.702l-.051-.013c-.328-.061-.689-.077-1.018-.138-13.48-2.311-27.166-3.525-40.716-3.525-115.977 0-214.802 83.026-234.97 197.426a15.487 15.487 0 0 0 2.551 11.541 15.532 15.532 0 0 0 9.982 6.352Zm429.638 44.388-64.4-11.355c9.722-69.913.654-133.779-22.393-178.935 59.435 42.28 94.498 114.228 86.793 190.29Zm-159.9-222.508c50.007 19.406 78.191 107.72 65.073 205.787l-98.515-17.367 33.442-188.42Zm-30.821-3.188-33.045 186.242-47.594-8.391-42.319-7.464c19.996-91.39 71.278-162.294 122.958-170.387Zm-69.814 3.843c-37.803 34.812-68.779 92.559-83.552 161.184l-64.419-11.36c18.739-74.115 76.106-130.78 147.971-149.824Z" fill="#FBD42C"/><path d="M705.006 723.618c-.051-12.653-.24-74.024-.12-119.61 0-5.93-3.378-11.342-8.705-13.932a15.43 15.43 0 0 0-16.324 1.783c-49.921 39.501-134.024 45.4-179.706 45.4-53.109 0-99.083-7.627-121.096-15.19-87.241-29.973-160.278-52.903-239.538-52.903-42.475 0-84.208 6.563-127.587 20.057A15.443 15.443 0 0 0 1.078 603.94L.82 725.985a15.474 15.474 0 0 0 4.516 10.945 15.457 15.457 0 0 0 10.93 4.529h673.468c8.533 0 15.445-6.916 15.445-15.445 0-.815-.052-1.616-.173-2.396Zm-673.26-13.05.188-95.07c36.492-10.383 71.796-15.441 107.582-15.441 74.64 0 142.195 21.232 229.505 51.23 29.822 10.244 81.295 16.863 131.129 16.863 42.939 0 117.426-5.051 173.811-35.656-.018 29.584.052 60.233.104 78.074H31.745ZM16.756 426.505h202.279c7.946 0 14.617-6.05 15.376-13.971.345-3.728.552-7.494.552-11.309 0-64.556-52.507-117.075-117.063-117.075C53.343 284.15.82 336.67.82 401.225c0 3.801.206 7.555.551 11.266.741 7.943 7.413 14.014 15.385 14.014ZM117.9 315.04c45.628 0 83.104 35.657 86 80.575H31.892c2.904-44.918 40.362-80.575 86.008-80.575ZM426.407 439.887c-8.532 0-15.444 6.913-15.444 15.445 0 8.528 6.912 15.445 15.444 15.445h161.262c8.516 0 15.445-6.917 15.445-15.445 0-8.532-6.93-15.445-15.445-15.445H426.407ZM16.265 470.775h.173c101.256-1.15 205.959-1.193 311.213-.129h.156c8.445 0 15.358-6.81 15.444-15.29.087-8.528-6.774-15.515-15.29-15.601-105.479-1.064-210.406-1.021-311.868.129-8.533.1-15.368 7.09-15.272 15.622.102 8.47 6.997 15.269 15.444 15.269ZM16.266 521.593h300.612c8.533 0 15.445-6.917 15.445-15.445s-6.912-15.445-15.445-15.445H16.266c-8.532 0-15.444 6.917-15.444 15.445s6.911 15.445 15.444 15.445Z" fill="#FBD42C"/></svg>